<?xml version="1.0" encoding="UTF-8" standalone="no"?>
<!-- Created with Inkscape (http://www.inkscape.org/) -->
<svg xmlns:dc="http://purl.org/dc/elements/1.1/" xmlns:cc="http://creativecommons.org/ns#" xmlns:rdf="http://www.w3.org/1999/02/22-rdf-syntax-ns#" xmlns:svg="http://www.w3.org/2000/svg" xmlns="http://www.w3.org/2000/svg" xmlns:sodipodi="http://sodipodi.sourceforge.net/DTD/sodipodi-0.dtd" xmlns:inkscape="http://www.inkscape.org/namespaces/inkscape" width="123.54684mm" height="137.51353mm" viewBox="0 0 437.76441 487.25271" id="svg2" version="1.1" inkscape:version="0.91 r13725" sodipodi:docname="school desk and chair with scantron and test.svg">
  <defs id="defs4">
    <clipPath id="clipEmfPath1" clipPathUnits="userSpaceOnUse">
      <path inkscape:connector-curvature="0" id="path3341" d="m 6.25143,5.00114 348.82957,0 0,387.58886 -348.82957,0 z"/>
    </clipPath>
    <pattern y="0" x="0" height="6" width="6" patternUnits="userSpaceOnUse" id="EMFhbasepattern"/>
    <clipPath id="clipEmfPath1-2" clipPathUnits="userSpaceOnUse">
      <path inkscape:connector-curvature="0" id="path3572" d="m 6.25143,5.00114 348.82957,0 0,387.58886 -348.82957,0 z"/>
    </clipPath>
    <pattern y="0" x="0" height="6" width="6" patternUnits="userSpaceOnUse" id="EMFhbasepattern-7"/>
    <clipPath id="clipEmfPath1-3" clipPathUnits="userSpaceOnUse">
      <path inkscape:connector-curvature="0" id="path3800" d="m 7.50172,7.50172 1184.01828,0 0,1521.59828 -1184.01828,0 z"/>
    </clipPath>
    <pattern y="0" x="0" height="6" width="6" patternUnits="userSpaceOnUse" id="EMFhbasepattern-76"/>
    <clipPath id="clipEmfPath1-9" clipPathUnits="userSpaceOnUse">
      <path inkscape:connector-curvature="0" id="path4007" d="m 3.75086,7.50172 1556.60914,0 0,1732.89828 -1556.60914,0 z"/>
    </clipPath>
    <pattern y="0" x="0" height="6" width="6" patternUnits="userSpaceOnUse" id="EMFhbasepattern-9"/>
    <clipPath id="clipEmfPath1-0" clipPathUnits="userSpaceOnUse">
      <path inkscape:connector-curvature="0" id="path4427" d="m 3.75086,7.50172 1556.60914,0 0,1732.89828 -1556.60914,0 z"/>
    </clipPath>
    <pattern y="0" x="0" height="6" width="6" patternUnits="userSpaceOnUse" id="EMFhbasepattern-8"/>
  </defs>
  <sodipodi:namedview id="base" pagecolor="#ffffff" bordercolor="#666666" borderopacity="1.0" inkscape:pageopacity="0.0" inkscape:pageshadow="2" inkscape:zoom="3.959798" inkscape:cx="297.71107" inkscape:cy="244.65034" inkscape:document-units="px" inkscape:current-layer="layer1" showgrid="false" fit-margin-top="0" fit-margin-left="0" fit-margin-right="0" fit-margin-bottom="0" inkscape:window-width="1366" inkscape:window-height="706" inkscape:window-x="-8" inkscape:window-y="-8" inkscape:window-maximized="1"/>
  <metadata id="metadata7">
    <rdf:RDF>
      <cc:Work rdf:about="">
        <dc:format>image/svg+xml</dc:format>
        <dc:type rdf:resource="http://purl.org/dc/dcmitype/StillImage"/>
        <dc:title/>
      </cc:Work>
    </rdf:RDF>
  </metadata>
  <g inkscape:label="Layer 1" inkscape:groupmode="layer" id="layer1" transform="translate(-77.288927,-242.42687)">
    <path inkscape:connector-curvature="0" id="path4430" d="m 229.44809,245.92238 0,186.4637 12.94553,0 0,-186.4637 -12.94553,0 z" style="fill:#808080;fill-opacity:1;fill-rule:evenodd;stroke:none"/>
    <path inkscape:connector-curvature="0" id="path4432" d="m 229.44809,245.92238 0,186.4637 12.94553,0 0,-186.4637 z" style="fill:none;stroke:#000000;stroke-width:0.94830716px;stroke-linecap:butt;stroke-linejoin:miter;stroke-miterlimit:8;stroke-dasharray:none;stroke-opacity:1"/>
    <path inkscape:connector-curvature="0" id="path4434" d="m 340.79689,245.92238 0,186.4637 12.92352,0 0,-186.4637 -12.92352,0 z" style="fill:#808080;fill-opacity:1;fill-rule:evenodd;stroke:none"/>
    <path inkscape:connector-curvature="0" id="path4436" d="m 340.79689,245.92238 0,186.4637 12.92352,0 0,-186.4637 z" style="fill:none;stroke:#000000;stroke-width:0.94830716px;stroke-linecap:butt;stroke-linejoin:miter;stroke-miterlimit:8;stroke-dasharray:none;stroke-opacity:1"/>
    <path inkscape:connector-curvature="0" id="path4438" d="m 213.56942,423.67472 0,164.71873 12.92352,0 0,-164.71873 -12.92352,0 z" style="fill:#a6a6a6;fill-opacity:1;fill-rule:evenodd;stroke:none"/>
    <path inkscape:connector-curvature="0" id="path4440" d="m 213.56942,423.67472 0,164.71873 12.92352,0 0,-164.71873 z" style="fill:none;stroke:#000000;stroke-width:0.94830716px;stroke-linecap:butt;stroke-linejoin:miter;stroke-miterlimit:8;stroke-dasharray:none;stroke-opacity:1"/>
    <path inkscape:connector-curvature="0" id="path4442" d="m 226.33857,601.2515 -3.2639,-9.63789 -6.5501,0 -3.28591,9.63789 z" style="fill:#a6a6a6;fill-opacity:1;fill-rule:evenodd;stroke:none"/>
    <path inkscape:connector-curvature="0" id="path4444" d="m 226.33857,601.2515 -3.2639,-9.63789 -6.5501,0 -3.28591,9.63789 z" style="fill:none;stroke:#000000;stroke-width:0.94830716px;stroke-linecap:butt;stroke-linejoin:miter;stroke-miterlimit:8;stroke-dasharray:none;stroke-opacity:1"/>
    <path inkscape:connector-curvature="0" id="path4446" d="m 357.31508,425.0864 0,163.30705 13.09934,0 0,-163.30705 -13.09934,0 z" style="fill:#a6a6a6;fill-opacity:1;fill-rule:evenodd;stroke:none"/>
    <path inkscape:connector-curvature="0" id="path4448" d="m 357.31508,425.0864 0,163.30705 13.09934,0 0,-163.30705 z" style="fill:none;stroke:#000000;stroke-width:0.94830716px;stroke-linecap:butt;stroke-linejoin:miter;stroke-miterlimit:8;stroke-dasharray:none;stroke-opacity:1"/>
    <path inkscape:connector-curvature="0" id="path4450" d="m 370.41442,601.2515 -3.26249,-9.63789 -6.55038,0 -3.28647,9.63789 z" style="fill:#a6a6a6;fill-opacity:1;fill-rule:evenodd;stroke:none"/>
    <path inkscape:connector-curvature="0" id="path4452" d="m 370.41442,601.2515 -3.26249,-9.63789 -6.55038,0 -3.28647,9.63789 z" style="fill:none;stroke:#000000;stroke-width:0.94830716px;stroke-linecap:butt;stroke-linejoin:miter;stroke-miterlimit:8;stroke-dasharray:none;stroke-opacity:1"/>
    <path inkscape:connector-curvature="0" id="path4454" d="m 203.97612,242.90102 c -5.99863,0 -10.85031,4.8518 -10.85031,10.82833 l 0,43.3354 c 0,5.97662 4.85168,10.8283 10.85031,10.8283 l 168.20219,0 c 5.97747,0 10.82887,-4.85168 10.82887,-10.8283 l 0,-43.3354 c 0,-5.97653 -4.8514,-10.82833 -10.82887,-10.82833 z" style="fill:#fdece1;fill-opacity:1;fill-rule:evenodd;stroke:none"/>
    <path inkscape:connector-curvature="0" id="path4456" d="m 203.97612,242.90102 c -5.99863,0 -10.85031,4.8518 -10.85031,10.82833 l 0,43.3354 c 0,5.97662 4.85168,10.8283 10.85031,10.8283 l 168.20219,0 c 5.97747,0 10.82887,-4.85168 10.82887,-10.8283 l 0,-43.3354 c 0,-5.97653 -4.8514,-10.82833 -10.82887,-10.82833 z" style="fill:none;stroke:#000000;stroke-width:0.94830716px;stroke-linecap:butt;stroke-linejoin:round;stroke-miterlimit:10;stroke-dasharray:none;stroke-opacity:1"/>
    <path inkscape:connector-curvature="0" id="path4458" d="m 218.0243,509.72824 171.64332,54.56061 3.48545,-10.98127 -171.64417,-54.54 z" style="fill:#a6a6a6;fill-opacity:1;fill-rule:evenodd;stroke:none"/>
    <path inkscape:connector-curvature="0" id="path4460" d="m 218.0243,509.72824 171.64332,54.56061 3.48545,-10.98127 -171.64417,-54.54 z" style="fill:none;stroke:#000000;stroke-width:0.94830716px;stroke-linecap:butt;stroke-linejoin:miter;stroke-miterlimit:8;stroke-dasharray:none;stroke-opacity:1"/>
    <path inkscape:connector-curvature="0" id="path4462" d="M 361.83487,498.34848 193.54491,557.8937 197.382,568.74514 365.67309,509.19879 Z" style="fill:#a6a6a6;fill-opacity:1;fill-rule:evenodd;stroke:none"/>
    <path inkscape:connector-curvature="0" id="path4464" d="M 361.83487,498.34848 193.54491,557.8937 197.382,568.74514 365.67309,509.19879 Z" style="fill:none;stroke:#000000;stroke-width:0.94830716px;stroke-linecap:butt;stroke-linejoin:miter;stroke-miterlimit:8;stroke-dasharray:none;stroke-opacity:1"/>
    <path inkscape:connector-curvature="0" id="path4466" d="m 204.04245,651.55478 -4.08009,-12.01984 -8.15989,0 -4.07981,12.01984 z" style="fill:#a6a6a6;fill-opacity:1;fill-rule:evenodd;stroke:none"/>
    <path inkscape:connector-curvature="0" id="path4468" d="m 204.04245,651.55478 -4.08009,-12.01984 -8.15989,0 -4.07981,12.01984 z" style="fill:none;stroke:#000000;stroke-width:0.94830716px;stroke-linecap:butt;stroke-linejoin:miter;stroke-miterlimit:8;stroke-dasharray:none;stroke-opacity:1"/>
    <path inkscape:connector-curvature="0" id="path4470" d="m 188.67093,425.0864 0,211.45134 15.37152,0 0,-211.45134 -15.37152,0 z" style="fill:#a6a6a6;fill-opacity:1;fill-rule:evenodd;stroke:none"/>
    <path inkscape:connector-curvature="0" id="path4472" d="m 188.67093,425.0864 0,211.45134 15.37152,0 0,-211.45134 z" style="fill:none;stroke:#000000;stroke-width:0.94830716px;stroke-linecap:butt;stroke-linejoin:miter;stroke-miterlimit:8;stroke-dasharray:none;stroke-opacity:1"/>
    <path inkscape:connector-curvature="0" id="path4474" d="m 378.37591,428.19592 0,208.34182 16.32091,0 0,-208.34182 -16.32091,0 z" style="fill:#a6a6a6;fill-opacity:1;fill-rule:evenodd;stroke:none"/>
    <path inkscape:connector-curvature="0" id="path4476" d="m 378.37591,428.19592 0,208.34182 16.32091,0 0,-208.34182 z" style="fill:none;stroke:#000000;stroke-width:0.94830716px;stroke-linecap:butt;stroke-linejoin:miter;stroke-miterlimit:8;stroke-dasharray:none;stroke-opacity:1"/>
    <path inkscape:connector-curvature="0" id="path4478" d="m 394.69682,651.55478 -4.08093,-12.01984 -8.15905,0 -4.08093,12.01984 z" style="fill:#a6a6a6;fill-opacity:1;fill-rule:evenodd;stroke:none"/>
    <path inkscape:connector-curvature="0" id="path4480" d="m 394.69682,651.55478 -4.08093,-12.01984 -8.15905,0 -4.08093,12.01984 z" style="fill:none;stroke:#000000;stroke-width:0.94830716px;stroke-linecap:butt;stroke-linejoin:miter;stroke-miterlimit:8;stroke-dasharray:none;stroke-opacity:1"/>
    <path inkscape:connector-curvature="0" id="path4482" d="m 215.53228,493.87158 0,28.73587 8.7994,0 0,-28.73587 -8.7994,0 z" style="fill:#a6a6a6;fill-opacity:1;fill-rule:evenodd;stroke:none"/>
    <path inkscape:connector-curvature="0" id="path4484" d="m 359.41058,493.87158 0,28.73587 8.79969,0 0,-28.73587 -8.79969,0 z" style="fill:#a6a6a6;fill-opacity:1;fill-rule:evenodd;stroke:none"/>
    <path inkscape:connector-curvature="0" id="path4486" d="m 279.22334,519.36556 -1.85251,6.94747 16.7386,4.45347 1.85251,-6.94549 z" style="fill:#a6a6a6;fill-opacity:1;fill-rule:evenodd;stroke:none"/>
    <path inkscape:connector-curvature="0" id="path4488" d="m 165.62495,456.88776 c -2.47001,0 -4.4769,2.00689 -4.4769,4.47689 0,2.47001 2.00689,4.4769 4.4769,4.4769 l 245.45769,0 c 2.46945,0 4.47605,-2.00689 4.47605,-4.4769 0,-2.47 -2.0066,-4.47689 -4.47605,-4.47689 z" style="fill:#f5b183;fill-opacity:1;fill-rule:evenodd;stroke:none"/>
    <path inkscape:connector-curvature="0" id="path4490" d="m 165.62495,456.88776 c -2.47001,0 -4.4769,2.00689 -4.4769,4.47689 0,2.47001 2.00689,4.4769 4.4769,4.4769 l 245.45769,0 c 2.46945,0 4.47605,-2.00689 4.47605,-4.4769 0,-2.47 -2.0066,-4.47689 -4.47605,-4.47689 z" style="fill:none;stroke:#000000;stroke-width:0.94830716px;stroke-linecap:butt;stroke-linejoin:round;stroke-miterlimit:10;stroke-dasharray:none;stroke-opacity:1"/>
    <path inkscape:connector-curvature="0" id="path4492" d="m 414.89829,457.68165 -24.34731,-44.06335 -204.37207,0 -24.36933,44.06335 z" style="fill:#f8cbad;fill-opacity:1;fill-rule:evenodd;stroke:none"/>
    <path inkscape:connector-curvature="0" id="path4494" d="m 414.89829,457.68165 -24.34731,-44.06335 -204.37207,0 -24.36933,44.06335 z" style="fill:none;stroke:#000000;stroke-width:0.94830716px;stroke-linecap:butt;stroke-linejoin:miter;stroke-miterlimit:8;stroke-dasharray:none;stroke-opacity:1"/>
    <path inkscape:connector-curvature="0" id="path4496" d="m 143.99007,420.41082 0,230.63596 15.39353,0 0,-230.63596 -15.39353,0 z" style="fill:#a6a6a6;fill-opacity:1;fill-rule:evenodd;stroke:none"/>
    <path inkscape:connector-curvature="0" id="path4498" d="m 143.99007,420.41082 0,230.63596 15.39353,0 0,-230.63596 z" style="fill:none;stroke:#000000;stroke-width:0.94830716px;stroke-linecap:butt;stroke-linejoin:miter;stroke-miterlimit:8;stroke-dasharray:none;stroke-opacity:1"/>
    <path inkscape:connector-curvature="0" id="path4500" d="m 159.20721,666.96977 -3.90341,-11.92954 -7.80712,0 -3.8814,11.92954 z" style="fill:#a6a6a6;fill-opacity:1;fill-rule:evenodd;stroke:none"/>
    <path inkscape:connector-curvature="0" id="path4502" d="m 159.20721,666.96977 -3.90341,-11.92954 -7.80712,0 -3.8814,11.92954 z" style="fill:none;stroke:#000000;stroke-width:0.94830716px;stroke-linecap:butt;stroke-linejoin:miter;stroke-miterlimit:8;stroke-dasharray:none;stroke-opacity:1"/>
    <path inkscape:connector-curvature="0" id="path4504" d="m 435.18724,420.41082 0,230.63596 15.3924,0 0,-230.63596 -15.3924,0 z" style="fill:#a6a6a6;fill-opacity:1;fill-rule:evenodd;stroke:none"/>
    <path inkscape:connector-curvature="0" id="path4506" d="m 435.18724,420.41082 0,230.63596 15.3924,0 0,-230.63596 z" style="fill:none;stroke:#000000;stroke-width:0.94830716px;stroke-linecap:butt;stroke-linejoin:miter;stroke-miterlimit:8;stroke-dasharray:none;stroke-opacity:1"/>
    <path inkscape:connector-curvature="0" id="path4508" d="m 450.7772,666.96977 -3.90313,-11.92954 -7.78369,0 -3.90314,11.92954 z" style="fill:#a6a6a6;fill-opacity:1;fill-rule:evenodd;stroke:none"/>
    <path inkscape:connector-curvature="0" id="path4510" d="m 450.7772,666.96977 -3.90313,-11.92954 -7.78369,0 -3.90314,11.92954 z" style="fill:none;stroke:#000000;stroke-width:0.94830716px;stroke-linecap:butt;stroke-linejoin:miter;stroke-miterlimit:8;stroke-dasharray:none;stroke-opacity:1"/>
    <path inkscape:connector-curvature="0" id="path4512" d="m 114.34997,436.64227 0,273.99575 18.30465,0 0,-273.99575 -18.30465,0 z" style="fill:#a6a6a6;fill-opacity:1;fill-rule:evenodd;stroke:none"/>
    <path inkscape:connector-curvature="0" id="path4514" d="m 114.34997,436.64227 0,273.99575 18.30465,0 0,-273.99575 z" style="fill:none;stroke:#000000;stroke-width:0.94830716px;stroke-linecap:butt;stroke-linejoin:miter;stroke-miterlimit:8;stroke-dasharray:none;stroke-opacity:1"/>
    <path inkscape:connector-curvature="0" id="path4516" d="m 132.65462,729.20542 -4.87398,-14.8844 -9.70337,0 -4.87397,14.8844 z" style="fill:#a6a6a6;fill-opacity:1;fill-rule:evenodd;stroke:none"/>
    <path transform="matrix(0.28222222,0,0,0.28222224,75.22691,239.1519)" inkscape:connector-curvature="0" id="path4518" d="m 203.484,1736.41 -17.27,-52.74 -34.382,0 -17.27,52.74 z" clip-path="url(#clipEmfPath1-0)" style="fill:none;stroke:#000000;stroke-width:3.36014342px;stroke-linecap:butt;stroke-linejoin:miter;stroke-miterlimit:8;stroke-dasharray:none;stroke-opacity:1"/>
    <path inkscape:connector-curvature="0" id="path4520" d="m 460.26269,436.64227 0,273.99575 18.28235,0 0,-273.99575 -18.28235,0 z" style="fill:#a6a6a6;fill-opacity:1;fill-rule:evenodd;stroke:none"/>
    <path inkscape:connector-curvature="0" id="path4522" d="m 460.26269,436.64227 0,273.99575 18.28235,0 0,-273.99575 z" style="fill:none;stroke:#000000;stroke-width:0.94830716px;stroke-linecap:butt;stroke-linejoin:miter;stroke-miterlimit:8;stroke-dasharray:none;stroke-opacity:1"/>
    <path inkscape:connector-curvature="0" id="path4524" d="m 479.69087,729.20542 -4.8514,-14.8844 -9.72538,0 -4.8514,14.8844 z" style="fill:#a6a6a6;fill-opacity:1;fill-rule:evenodd;stroke:none"/>
    <path transform="matrix(0.28222222,0,0,0.28222224,75.22691,239.1519)" inkscape:connector-curvature="0" id="path4526" d="m 1433.14,1736.41 -17.19,-52.74 -34.46,0 -17.19,52.74 z" clip-path="url(#clipEmfPath1-0)" style="fill:none;stroke:#000000;stroke-width:3.36014342px;stroke-linecap:butt;stroke-linejoin:miter;stroke-miterlimit:8;stroke-dasharray:none;stroke-opacity:1"/>
    <path inkscape:connector-curvature="0" id="path4528" d="m 101.86773,468.11287 c -4.67538,0 -8.44655,3.77134 -8.44655,8.44663 l 0,33.80826 c 0,4.65328 3.77117,8.44662 8.44655,8.44662 l 390.35098,0 c 4.6736,0 8.46667,-3.79334 8.46667,-8.44662 l 0,-33.80826 c 0,-4.67529 -3.79307,-8.44663 -8.46667,-8.44663 z" style="fill:#b35e25;fill-opacity:1;fill-rule:evenodd;stroke:none"/>
    <path inkscape:connector-curvature="0" id="path4530" d="m 101.86773,468.11287 c -4.67538,0 -8.44655,3.77134 -8.44655,8.44663 l 0,33.80826 c 0,4.65328 3.77117,8.44662 8.44655,8.44662 l 390.35098,0 c 4.6736,0 8.46667,-3.79334 8.46667,-8.44662 l 0,-33.80826 c 0,-4.67529 -3.79307,-8.44663 -8.46667,-8.44663 z" style="fill:none;stroke:#000000;stroke-width:0.94830716px;stroke-linecap:butt;stroke-linejoin:round;stroke-miterlimit:10;stroke-dasharray:none;stroke-opacity:1"/>
    <path inkscape:connector-curvature="0" id="path4532" d="m 84.90846,460.74715 c -3.94761,0 -7.14538,3.19758 -7.14538,7.12329 0,3.94744 3.19777,7.1453 7.14538,7.1453 l 422.52485,0 c 3.94829,0 7.14587,-3.19786 7.14587,-7.1453 0,-3.92571 -3.19758,-7.12329 -7.14587,-7.12329 z" style="fill:#fce5d6;fill-opacity:1;fill-rule:evenodd;stroke:none"/>
    <path transform="matrix(0.28222222,0,0,0.28222224,75.22691,239.1519)" inkscape:connector-curvature="0" id="path4534" d="m 34.3047,785.18 c -13.9876,0 -25.31827,11.33 -25.31827,25.24 0,13.987 11.33067,25.318 25.31827,25.318 l 1497.1353,0 c 13.99,0 25.32,-11.331 25.32,-25.318 0,-13.91 -11.33,-25.24 -25.32,-25.24 z" clip-path="url(#clipEmfPath1-0)" style="fill:none;stroke:#000000;stroke-width:3.36014342px;stroke-linecap:butt;stroke-linejoin:round;stroke-miterlimit:10;stroke-dasharray:none;stroke-opacity:1"/>
    <path inkscape:connector-curvature="0" id="path4536" d="m 513.43335,462.02618 -25.16293,-79.19466 -384.21931,0 -25.14123,79.19466 z" style="fill:#f8cbad;fill-opacity:1;fill-rule:evenodd;stroke:none"/>
    <path transform="matrix(0.28222222,0,0,0.28222224,75.22691,239.1519)" inkscape:connector-curvature="0" id="path4538" d="m 1552.7,789.712 -89.16,-280.611 -1361.407,0 -89.0831,280.611 z" clip-path="url(#clipEmfPath1-0)" style="fill:none;stroke:#000000;stroke-width:3.36014342px;stroke-linecap:butt;stroke-linejoin:miter;stroke-miterlimit:8;stroke-dasharray:none;stroke-opacity:1"/>
    <path inkscape:connector-curvature="0" id="path4540" d="m 128.59683,445.53001 c -1.87452,0 -3.37425,1.52174 -3.37425,3.37425 0,1.87452 1.49973,3.39626 3.37425,3.39626 l 333.98008,0 c 1.87396,0 3.39796,-1.52174 3.39796,-3.39626 0,-1.85251 -1.524,-3.37425 -3.39796,-3.37425 z" style="fill:#f5b183;fill-opacity:1;fill-rule:evenodd;stroke:none"/>
    <path inkscape:connector-curvature="0" id="path4542" d="m 128.59683,445.53001 c -1.87452,0 -3.37425,1.52174 -3.37425,3.37425 0,1.87452 1.49973,3.39626 3.37425,3.39626 l 333.98008,0 c 1.87396,0 3.39796,-1.52174 3.39796,-3.39626 0,-1.85251 -1.524,-3.37425 -3.39796,-3.37425 z" style="fill:none;stroke:#000000;stroke-width:0.94830716px;stroke-linecap:butt;stroke-linejoin:round;stroke-miterlimit:10;stroke-dasharray:none;stroke-opacity:1"/>
    <path inkscape:connector-curvature="0" id="path4544" d="m 393.8812,438.86985 -7.82885,-47.85642 -79.70322,0 -7.80683,47.85642 z" style="fill:#ffffff;fill-opacity:1;fill-rule:evenodd;stroke:none"/>
    <path inkscape:connector-curvature="0" id="path4546" d="m 393.8812,438.86985 -7.82885,-47.85642 -79.70322,0 -7.80683,47.85642 z" style="fill:none;stroke:#000000;stroke-width:0.94830716px;stroke-linecap:butt;stroke-linejoin:miter;stroke-miterlimit:8;stroke-dasharray:none;stroke-opacity:1"/>
    <path inkscape:connector-curvature="0" id="path4548" d="m 311.31116,413.35386 c 0.35306,0.8159 0.15438,1.91854 1.10293,2.4257 1.87452,0.97056 6.57182,1.61007 6.57182,1.61007 1.8305,-0.28673 3.81536,-0.19868 5.49148,-0.81618 1.36737,-0.50716 2.09494,-1.67584 3.28592,-2.40369 2.82278,-1.74216 3.2639,-1.61008 6.5721,-2.42598 1.10265,0.26472 2.13897,0.8159 3.28592,0.8159 1.52174,0 3.32994,-1.58778 4.38855,-0.8159 1.05862,0.77188 -2.29362,2.55834 -1.10264,3.21987 1.49973,0.81591 3.66099,-0.52916 5.49148,-0.79389 2.31563,-1.14695 4.56495,-3.10952 7.67447,-0.8159 1.05862,0.79389 0.72785,2.13896 1.10292,3.21959 1.94056,-0.48514 10.76227,-2.91084 13.14422,-2.40369 1.12325,0.22042 0.28505,1.80848 1.10349,2.40369 0.81562,0.59549 2.20416,0.52945 3.28507,0.81618 7.27851,-1.78646 4.27849,-1.61007 8.77711,-1.61007" style="fill:none;stroke:#000000;stroke-width:0.94830716px;stroke-linecap:butt;stroke-linejoin:round;stroke-miterlimit:10;stroke-dasharray:none;stroke-opacity:1"/>
    <path inkscape:connector-curvature="0" id="path4550" d="m 311.53186,427.22536 c 0.17639,0.52945 0.28674,1.10293 0.55118,1.61008 1.43369,2.8448 1.41167,1.56577 5.35912,1.05861 0.52945,-0.35306 1.12465,-0.66181 1.61007,-1.05861 0.5732,-0.50715 0.85994,-1.61008 1.6098,-1.61008 0.63952,0 0.70584,1.05862 1.08063,1.61008 1.235,-0.2207 3.50661,-0.4191 4.82967,-1.08063 0.57347,-0.28674 1.10264,-0.66153 1.61008,-1.08063 0.57319,-0.48514 1.05861,-1.08063 1.60979,-1.61008 1.05862,0.35306 2.13925,0.72785 3.21987,1.08063 0.52917,0.17667 1.05862,0.39709 1.6098,0.52945 0.70584,0.17639 1.43369,0.37479 2.13924,0.55118 0.90424,0.17667 1.80848,0.30875 2.69071,0.52945 0.55118,0.13236 1.05862,0.3968 1.6098,0.52917 0.88222,0.22069 1.78646,0.35306 2.6907,0.55146 1.23501,-0.1984 2.49203,-0.68383 3.74904,-0.55146 1.8305,0.19868 1.56577,1.78646 2.69043,2.6907 0.44111,0.35278 1.05861,0.35278 1.61008,0.52917 4.45487,-1.47743 -2.6464,0.77188 5.35883,-1.05862 1.10405,-0.26444 2.11723,-0.85993 3.22072,-1.08062 3.23991,-0.63952 1.8288,-0.24243 4.30107,-1.08063 0.52775,0.17639 1.05833,0.37507 1.60866,0.55146 0.70556,0.1984 1.47885,0.24243 2.13925,0.52917 0.59549,0.24271 1.08091,0.70583 1.60867,1.08062 8.22677,-0.55118 5.3594,-0.55118 8.60213,-0.55118" style="fill:none;stroke:#000000;stroke-width:0.94830716px;stroke-linecap:butt;stroke-linejoin:round;stroke-miterlimit:10;stroke-dasharray:none;stroke-opacity:1"/>
    <path inkscape:connector-curvature="0" id="path4552" d="m 313.14165,402.52527 c 0.35306,0.52945 0.46313,1.41168 1.08063,1.61008 1.8305,0.6175 3.41828,-1.91883 4.30051,-2.69071 0.48514,-0.41881 1.05861,-0.70555 1.61007,-1.05833 0.17639,0.70556 0.066,1.56577 0.52917,2.13896 0.35278,0.44112 1.05862,0.59549 1.6098,0.52945 1.61007,-0.1984 2.99945,-1.27903 4.3005,-2.13924 0.35306,-0.52917 0.57347,-1.21299 1.05861,-1.6098 0.44112,-0.35306 1.12466,-0.28674 1.61008,-0.52945 4.16814,-2.09493 -0.81619,-0.26472 3.21959,-1.60979 0.37508,0.52916 0.79418,1.0143 1.08063,1.60979 0.26473,0.48514 0.17667,1.16897 0.55146,1.61008 0.39709,0.48514 1.05862,0.70556 1.6098,1.05833 4.27849,-1.4334 -1.08063,0 3.21987,0 1.4557,0 3.0655,-0.99229 4.27849,-1.60979 0.50715,0.77188 1.78647,2.88911 2.69043,3.21987 1.34535,0.50715 2.86709,0.35278 4.3005,0.55118 0.52945,0.17667 1.0366,0.6175 1.61008,0.52945 1.30104,-0.1984 2.60237,-1.58778 3.74904,-2.13924 0.50715,-0.26473 1.12465,-0.26473 1.60979,-0.55147 1.12381,-0.6175 2.13981,-1.4334 3.22072,-2.13896 0.52776,-0.35306 1.60867,-1.08063 1.60867,-1.08063 0.0452,0.28646 -0.19756,4.69731 2.16182,3.77106 0.59549,-0.24272 0.70556,-1.08063 1.05833,-1.6098 0.72814,0.17639 1.56634,0.066 2.16183,0.52917 0.44026,0.35277 0.13264,1.21299 0.52775,1.60979 0.39793,0.39709 1.08091,0.35306 1.61149,0.52945 1.25589,-0.17639 2.5146,-0.28674 3.74791,-0.52945 1.10349,-0.22041 1.74413,-0.5952 2.6924,-1.08063" style="fill:none;stroke:#000000;stroke-width:0.94830716px;stroke-linecap:butt;stroke-linejoin:round;stroke-miterlimit:10;stroke-dasharray:none;stroke-opacity:1"/>
    <path inkscape:connector-curvature="0" id="path4554" d="m 269.56372,459.4018 -4.65328,-72.84325 -47.28295,0 -4.63126,72.84325 z" style="fill:#ffffff;fill-opacity:1;fill-rule:evenodd;stroke:none"/>
    <path inkscape:connector-curvature="0" id="path4556" d="m 269.56372,459.4018 -4.65328,-72.84325 -47.28295,0 -4.63126,72.84325 z" style="fill:none;stroke:#000000;stroke-width:0.94830716px;stroke-linecap:butt;stroke-linejoin:miter;stroke-miterlimit:8;stroke-dasharray:none;stroke-opacity:1"/>
    <path inkscape:connector-curvature="0" id="path4558" d="m 225.27995,417.36762 -3.41828,-0.2207 -1.47771,24.01655 3.41856,0.1984 z" style="fill:#00b050;fill-opacity:1;fill-rule:evenodd;stroke:none"/>
    <path inkscape:connector-curvature="0" id="path4560" d="m 225.27995,417.36762 -3.41828,-0.2207 -1.47771,24.01655 3.41856,0.1984 z" style="fill:none;stroke:#000000;stroke-width:0.94830716px;stroke-linecap:butt;stroke-linejoin:miter;stroke-miterlimit:8;stroke-dasharray:none;stroke-opacity:1"/>
    <path inkscape:connector-curvature="0" id="path4562" d="m 225.87544,404.11334 -3.39626,-0.19869 -0.50716,8.11587 3.41828,0.1984 z" style="fill:#00b050;fill-opacity:1;fill-rule:evenodd;stroke:none"/>
    <path inkscape:connector-curvature="0" id="path4564" d="m 225.87544,404.11334 -3.39626,-0.19869 -0.50716,8.11587 3.41828,0.1984 z" style="fill:none;stroke:#000000;stroke-width:0.94830716px;stroke-linecap:butt;stroke-linejoin:miter;stroke-miterlimit:8;stroke-dasharray:none;stroke-opacity:1"/>
    <path inkscape:connector-curvature="0" id="path4566" d="m 226.6253,391.14579 -3.39626,-0.2207 -0.50715,8.11587 3.41827,0.22041 z" style="fill:#00b050;fill-opacity:1;fill-rule:evenodd;stroke:none"/>
    <path inkscape:connector-curvature="0" id="path4568" d="m 226.6253,391.14579 -3.39626,-0.2207 -0.50715,8.11587 3.41827,0.22041 z" style="fill:none;stroke:#000000;stroke-width:0.94830716px;stroke-linecap:butt;stroke-linejoin:miter;stroke-miterlimit:8;stroke-dasharray:none;stroke-opacity:1"/>
    <path inkscape:connector-curvature="0" id="path4570" d="m 257.36805,440.72236 5.97662,0" style="fill:none;stroke:#000000;stroke-width:0.94830716px;stroke-linecap:butt;stroke-linejoin:round;stroke-miterlimit:10;stroke-dasharray:none;stroke-opacity:1"/>
    <path inkscape:connector-curvature="0" id="path4572" d="m 257.12534,434.98845 5.97662,0" style="fill:none;stroke:#000000;stroke-width:0.94830716px;stroke-linecap:butt;stroke-linejoin:round;stroke-miterlimit:10;stroke-dasharray:none;stroke-opacity:1"/>
    <path inkscape:connector-curvature="0" id="path4574" d="m 256.88291,429.25454 5.97662,0" style="fill:none;stroke:#000000;stroke-width:0.94830716px;stroke-linecap:butt;stroke-linejoin:round;stroke-miterlimit:10;stroke-dasharray:none;stroke-opacity:1"/>
    <path inkscape:connector-curvature="0" id="path4576" d="m 256.41979,423.91743 5.97662,0" style="fill:none;stroke:#000000;stroke-width:0.94830716px;stroke-linecap:butt;stroke-linejoin:round;stroke-miterlimit:10;stroke-dasharray:none;stroke-opacity:1"/>
    <path inkscape:connector-curvature="0" id="path4578" d="m 256.17707,419.22013 5.97662,0" style="fill:none;stroke:#000000;stroke-width:0.94830716px;stroke-linecap:butt;stroke-linejoin:round;stroke-miterlimit:10;stroke-dasharray:none;stroke-opacity:1"/>
    <path inkscape:connector-curvature="0" id="path4580" d="m 255.93465,413.48594 5.97633,0" style="fill:none;stroke:#000000;stroke-width:0.94830716px;stroke-linecap:butt;stroke-linejoin:round;stroke-miterlimit:10;stroke-dasharray:none;stroke-opacity:1"/>
    <path inkscape:connector-curvature="0" id="path4582" d="m 255.69193,407.75203 5.97662,0" style="fill:none;stroke:#000000;stroke-width:0.94830716px;stroke-linecap:butt;stroke-linejoin:round;stroke-miterlimit:10;stroke-dasharray:none;stroke-opacity:1"/>
    <path inkscape:connector-curvature="0" id="path4584" d="m 255.44951,402.39319 5.97633,0" style="fill:none;stroke:#000000;stroke-width:0.94830716px;stroke-linecap:butt;stroke-linejoin:round;stroke-miterlimit:10;stroke-dasharray:none;stroke-opacity:1"/>
    <path inkscape:connector-curvature="0" id="path4586" d="m 255.16277,396.12983 5.97634,0" style="fill:none;stroke:#000000;stroke-width:0.94830716px;stroke-linecap:butt;stroke-linejoin:round;stroke-miterlimit:10;stroke-dasharray:none;stroke-opacity:1"/>
    <path inkscape:connector-curvature="0" id="path4588" d="m 254.67763,390.77072 5.97634,0" style="fill:none;stroke:#000000;stroke-width:0.94830716px;stroke-linecap:butt;stroke-linejoin:round;stroke-miterlimit:10;stroke-dasharray:none;stroke-opacity:1"/>
    <path inkscape:connector-curvature="0" id="path4590" d="m 251.47977,438.58311 c -0.70584,0 -1.27903,0.68354 -1.27903,1.52174 0,0.83792 0.57319,1.49973 1.27903,1.49973 0.72785,0 1.30104,-0.66181 1.30104,-1.49973 0,-0.8382 -0.57319,-1.52174 -1.30104,-1.52174" style="fill:none;stroke:#00b050;stroke-width:0.35285848px;stroke-linecap:butt;stroke-linejoin:round;stroke-miterlimit:10;stroke-dasharray:none;stroke-opacity:1"/>
    <path inkscape:connector-curvature="0" id="path4592" d="m 246.78218,438.78151 c -0.72757,0 -1.30105,0.68383 -1.30105,1.52175 0,0.8382 0.57348,1.52174 1.30105,1.52174 0.70584,0 1.27931,-0.68354 1.27931,-1.52174 0,-0.83792 -0.57347,-1.52175 -1.27931,-1.52175" style="fill:none;stroke:#00b050;stroke-width:0.35285848px;stroke-linecap:butt;stroke-linejoin:round;stroke-miterlimit:10;stroke-dasharray:none;stroke-opacity:1"/>
    <path inkscape:connector-curvature="0" id="path4594" d="m 242.06286,438.78151 c -0.72785,0 -1.30133,0.68383 -1.30133,1.52175 0,0.8382 0.57348,1.52174 1.30133,1.52174 0.70555,0 1.27903,-0.68354 1.27903,-1.52174 0,-0.83792 -0.57348,-1.52175 -1.27903,-1.52175" style="fill:none;stroke:#00b050;stroke-width:0.35285848px;stroke-linecap:butt;stroke-linejoin:round;stroke-miterlimit:10;stroke-dasharray:none;stroke-opacity:1"/>
    <path inkscape:connector-curvature="0" id="path4596" d="m 236.6377,438.9802 c -0.70584,0 -1.27931,0.68354 -1.27931,1.52146 0,0.8382 0.57347,1.52174 1.27931,1.52174 0.72757,0 1.30105,-0.68354 1.30105,-1.52174 0,-0.83792 -0.57348,-1.52146 -1.30105,-1.52146" style="fill:none;stroke:#00b050;stroke-width:0.35285848px;stroke-linecap:butt;stroke-linejoin:round;stroke-miterlimit:10;stroke-dasharray:none;stroke-opacity:1"/>
    <path inkscape:connector-curvature="0" id="path4598" d="m 251.47977,433.55476 c -0.70584,0 -1.27903,0.68382 -1.27903,1.52174 0,0.8382 0.57319,1.52174 1.27903,1.52174 0.72785,0 1.30104,-0.68354 1.30104,-1.52174 0,-0.83792 -0.57319,-1.52174 -1.30104,-1.52174" style="fill:none;stroke:#00b050;stroke-width:0.35285848px;stroke-linecap:butt;stroke-linejoin:round;stroke-miterlimit:10;stroke-dasharray:none;stroke-opacity:1"/>
    <path inkscape:connector-curvature="0" id="path4600" d="m 246.78218,433.77546 c -0.72757,0 -1.30105,0.66153 -1.30105,1.49973 0,0.83791 0.57348,1.52146 1.30105,1.52146 0.70584,0 1.27931,-0.68355 1.27931,-1.52146 0,-0.8382 -0.57347,-1.49973 -1.27931,-1.49973" style="fill:none;stroke:#00b050;stroke-width:0.35285848px;stroke-linecap:butt;stroke-linejoin:round;stroke-miterlimit:10;stroke-dasharray:none;stroke-opacity:1"/>
    <path inkscape:connector-curvature="0" id="path4602" d="m 242.06286,433.77546 c -0.72785,0 -1.30133,0.66153 -1.30133,1.49973 0,0.83791 0.57348,1.52146 1.30133,1.52146 0.70555,0 1.27903,-0.68355 1.27903,-1.52146 0,-0.8382 -0.57348,-1.49973 -1.27903,-1.49973" style="fill:none;stroke:#00b050;stroke-width:0.35285848px;stroke-linecap:butt;stroke-linejoin:round;stroke-miterlimit:10;stroke-dasharray:none;stroke-opacity:1"/>
    <path inkscape:connector-curvature="0" id="path4604" d="m 236.6377,433.97386 c -0.70584,0 -1.27931,0.68382 -1.27931,1.52174 0,0.83792 0.57347,1.49973 1.27931,1.49973 0.72757,0 1.30105,-0.66181 1.30105,-1.49973 0,-0.83792 -0.57348,-1.52174 -1.30105,-1.52174" style="fill:none;stroke:#00b050;stroke-width:0.35285848px;stroke-linecap:butt;stroke-linejoin:round;stroke-miterlimit:10;stroke-dasharray:none;stroke-opacity:1"/>
    <path inkscape:connector-curvature="0" id="path4606" d="m 251.28137,428.5487 c -0.70584,0 -1.30133,0.66153 -1.30133,1.49973 0,0.83792 0.59549,1.52174 1.30133,1.52174 0.70555,0 1.30104,-0.68382 1.30104,-1.52174 0,-0.8382 -0.59549,-1.49973 -1.30104,-1.49973" style="fill:none;stroke:#00b050;stroke-width:0.35285848px;stroke-linecap:butt;stroke-linejoin:round;stroke-miterlimit:10;stroke-dasharray:none;stroke-opacity:1"/>
    <path inkscape:connector-curvature="0" id="path4608" d="m 246.56176,428.7471 c -0.70583,0 -1.27903,0.68383 -1.27903,1.52175 0,0.8382 0.5732,1.49972 1.27903,1.49972 0.72785,0 1.30105,-0.66152 1.30105,-1.49972 0,-0.83792 -0.5732,-1.52175 -1.30105,-1.52175" style="fill:none;stroke:#00b050;stroke-width:0.35285848px;stroke-linecap:butt;stroke-linejoin:round;stroke-miterlimit:10;stroke-dasharray:none;stroke-opacity:1"/>
    <path inkscape:connector-curvature="0" id="path4610" d="m 241.86446,428.7471 c -0.72785,0 -1.30133,0.68383 -1.30133,1.52175 0,0.8382 0.57348,1.49972 1.30133,1.49972 0.70555,0 1.27903,-0.66152 1.27903,-1.49972 0,-0.83792 -0.57348,-1.52175 -1.27903,-1.52175" style="fill:none;stroke:#00b050;stroke-width:0.35285848px;stroke-linecap:butt;stroke-linejoin:round;stroke-miterlimit:10;stroke-dasharray:none;stroke-opacity:1"/>
    <path inkscape:connector-curvature="0" id="path4612" d="m 236.43902,428.94579 c -0.70556,0 -1.27903,0.68354 -1.27903,1.52146 0,0.8382 0.57347,1.52174 1.27903,1.52174 0.72785,0 1.30132,-0.68354 1.30132,-1.52174 0,-0.83792 -0.57347,-1.52146 -1.30132,-1.52146" style="fill:none;stroke:#00b050;stroke-width:0.35285848px;stroke-linecap:butt;stroke-linejoin:round;stroke-miterlimit:10;stroke-dasharray:none;stroke-opacity:1"/>
    <path inkscape:connector-curvature="0" id="path4614" d="m 250.88428,423.76306 c -0.72785,0 -1.30105,0.68354 -1.30105,1.52174 0,0.83792 0.5732,1.49973 1.30105,1.49973 0.70584,0 1.27903,-0.66181 1.27903,-1.49973 0,-0.8382 -0.57319,-1.52174 -1.27903,-1.52174" style="fill:none;stroke:#00b050;stroke-width:0.35285848px;stroke-linecap:butt;stroke-linejoin:round;stroke-miterlimit:10;stroke-dasharray:none;stroke-opacity:1"/>
    <path inkscape:connector-curvature="0" id="path4616" d="m 246.16468,423.96146 c -0.72757,0 -1.30105,0.68383 -1.30105,1.52174 0,0.8382 0.57348,1.52175 1.30105,1.52175 0.70583,0 1.27931,-0.68355 1.27931,-1.52175 0,-0.83791 -0.57348,-1.52174 -1.27931,-1.52174" style="fill:none;stroke:#00b050;stroke-width:0.35285848px;stroke-linecap:butt;stroke-linejoin:round;stroke-miterlimit:10;stroke-dasharray:none;stroke-opacity:1"/>
    <path inkscape:connector-curvature="0" id="path4618" d="m 241.44536,423.96146 c -0.70584,0 -1.30133,0.68383 -1.30133,1.52174 0,0.8382 0.59549,1.52175 1.30133,1.52175 0.70555,0 1.30104,-0.68355 1.30104,-1.52175 0,-0.83791 -0.59549,-1.52174 -1.30104,-1.52174" style="fill:none;stroke:#00b050;stroke-width:0.35285848px;stroke-linecap:butt;stroke-linejoin:round;stroke-miterlimit:10;stroke-dasharray:none;stroke-opacity:1"/>
    <path inkscape:connector-curvature="0" id="path4620" d="m 236.04221,424.18216 c -0.72785,0 -1.30132,0.66153 -1.30132,1.49945 0,0.8382 0.57347,1.52174 1.30132,1.52174 0.70556,0 1.27903,-0.68354 1.27903,-1.52174 0,-0.83792 -0.57347,-1.49945 -1.27903,-1.49945" style="fill:none;stroke:#00b050;stroke-width:0.35285848px;stroke-linecap:butt;stroke-linejoin:round;stroke-miterlimit:10;stroke-dasharray:none;stroke-opacity:1"/>
    <path inkscape:connector-curvature="0" id="path4622" d="m 250.88428,418.55832 c -0.72785,0 -1.30105,0.68382 -1.30105,1.52174 0,0.8382 0.5732,1.49973 1.30105,1.49973 0.70584,0 1.27903,-0.66153 1.27903,-1.49973 0,-0.83792 -0.57319,-1.52174 -1.27903,-1.52174" style="fill:none;stroke:#00b050;stroke-width:0.35285848px;stroke-linecap:butt;stroke-linejoin:round;stroke-miterlimit:10;stroke-dasharray:none;stroke-opacity:1"/>
    <path inkscape:connector-curvature="0" id="path4624" d="m 246.16468,418.757 c -0.72757,0 -1.30105,0.68354 -1.30105,1.52146 0,0.8382 0.57348,1.52174 1.30105,1.52174 0.70583,0 1.27931,-0.68354 1.27931,-1.52174 0,-0.83792 -0.57348,-1.52146 -1.27931,-1.52146" style="fill:none;stroke:#00b050;stroke-width:0.35285848px;stroke-linecap:butt;stroke-linejoin:round;stroke-miterlimit:10;stroke-dasharray:none;stroke-opacity:1"/>
    <path inkscape:connector-curvature="0" id="path4626" d="m 241.44536,418.757 c -0.70584,0 -1.30133,0.68354 -1.30133,1.52146 0,0.8382 0.59549,1.52174 1.30133,1.52174 0.70555,0 1.30104,-0.68354 1.30104,-1.52174 0,-0.83792 -0.59549,-1.52146 -1.30104,-1.52146" style="fill:none;stroke:#00b050;stroke-width:0.35285848px;stroke-linecap:butt;stroke-linejoin:round;stroke-miterlimit:10;stroke-dasharray:none;stroke-opacity:1"/>
    <path inkscape:connector-curvature="0" id="path4628" d="m 236.04221,418.97742 c -0.72785,0 -1.30132,0.66153 -1.30132,1.49973 0,0.83791 0.57347,1.52174 1.30132,1.52174 0.70556,0 1.27903,-0.68383 1.27903,-1.52174 0,-0.8382 -0.57347,-1.49973 -1.27903,-1.49973" style="fill:none;stroke:#00b050;stroke-width:0.35285848px;stroke-linecap:butt;stroke-linejoin:round;stroke-miterlimit:10;stroke-dasharray:none;stroke-opacity:1"/>
    <path inkscape:connector-curvature="0" id="path4630" d="m 250.66386,413.53025 c -0.70583,0 -1.27931,0.68354 -1.27931,1.52174 0,0.83792 0.57348,1.52146 1.27931,1.52146 0.72757,0 1.30105,-0.68354 1.30105,-1.52146 0,-0.8382 -0.57348,-1.52174 -1.30105,-1.52174" style="fill:none;stroke:#00b050;stroke-width:0.35285848px;stroke-linecap:butt;stroke-linejoin:round;stroke-miterlimit:10;stroke-dasharray:none;stroke-opacity:1"/>
    <path inkscape:connector-curvature="0" id="path4632" d="m 245.96627,413.75066 c -0.72785,0 -1.30104,0.66153 -1.30104,1.49973 0,0.83792 0.57319,1.52174 1.30104,1.52174 0.70584,0 1.27904,-0.68382 1.27904,-1.52174 0,-0.8382 -0.5732,-1.49973 -1.27904,-1.49973" style="fill:none;stroke:#00b050;stroke-width:0.35285848px;stroke-linecap:butt;stroke-linejoin:round;stroke-miterlimit:10;stroke-dasharray:none;stroke-opacity:1"/>
    <path inkscape:connector-curvature="0" id="path4634" d="m 241.24695,413.75066 c -0.72785,0 -1.30132,0.66153 -1.30132,1.49973 0,0.83792 0.57347,1.52174 1.30132,1.52174 0.70556,0 1.27904,-0.68382 1.27904,-1.52174 0,-0.8382 -0.57348,-1.49973 -1.27904,-1.49973" style="fill:none;stroke:#00b050;stroke-width:0.35285848px;stroke-linecap:butt;stroke-linejoin:round;stroke-miterlimit:10;stroke-dasharray:none;stroke-opacity:1"/>
    <path inkscape:connector-curvature="0" id="path4636" d="m 235.82151,413.94906 c -0.70555,0 -1.27903,0.68383 -1.27903,1.52175 0,0.8382 0.57348,1.49972 1.27903,1.49972 0.72786,0 1.30133,-0.66152 1.30133,-1.49972 0,-0.83792 -0.57347,-1.52175 -1.30133,-1.52175" style="fill:none;stroke:#00b050;stroke-width:0.35285848px;stroke-linecap:butt;stroke-linejoin:round;stroke-miterlimit:10;stroke-dasharray:none;stroke-opacity:1"/>
    <path inkscape:connector-curvature="0" id="path4638" d="m 250.66386,408.76662 c -0.70583,0 -1.27931,0.66153 -1.27931,1.49973 0,0.83791 0.57348,1.52146 1.27931,1.52146 0.72757,0 1.30105,-0.68355 1.30105,-1.52146 0,-0.8382 -0.57348,-1.49973 -1.30105,-1.49973" style="fill:none;stroke:#00b050;stroke-width:0.35285848px;stroke-linecap:butt;stroke-linejoin:round;stroke-miterlimit:10;stroke-dasharray:none;stroke-opacity:1"/>
    <path inkscape:connector-curvature="0" id="path4640" d="m 245.96627,408.96502 c -0.72785,0 -1.30104,0.68382 -1.30104,1.52174 0,0.83792 0.57319,1.49973 1.30104,1.49973 0.70584,0 1.27904,-0.66181 1.27904,-1.49973 0,-0.83792 -0.5732,-1.52174 -1.27904,-1.52174" style="fill:none;stroke:#00b050;stroke-width:0.35285848px;stroke-linecap:butt;stroke-linejoin:round;stroke-miterlimit:10;stroke-dasharray:none;stroke-opacity:1"/>
    <path inkscape:connector-curvature="0" id="path4642" d="m 241.24695,408.96502 c -0.72785,0 -1.30132,0.68382 -1.30132,1.52174 0,0.83792 0.57347,1.49973 1.30132,1.49973 0.70556,0 1.27904,-0.66181 1.27904,-1.49973 0,-0.83792 -0.57348,-1.52174 -1.27904,-1.52174" style="fill:none;stroke:#00b050;stroke-width:0.35285848px;stroke-linecap:butt;stroke-linejoin:round;stroke-miterlimit:10;stroke-dasharray:none;stroke-opacity:1"/>
    <path inkscape:connector-curvature="0" id="path4644" d="m 235.82151,409.16342 c -0.70555,0 -1.27903,0.68383 -1.27903,1.52174 0,0.8382 0.57348,1.52175 1.27903,1.52175 0.72786,0 1.30133,-0.68355 1.30133,-1.52175 0,-0.83791 -0.57347,-1.52174 -1.30133,-1.52174" style="fill:none;stroke:#00b050;stroke-width:0.35285848px;stroke-linecap:butt;stroke-linejoin:round;stroke-miterlimit:10;stroke-dasharray:none;stroke-opacity:1"/>
    <path inkscape:connector-curvature="0" id="path4646" d="m 250.26678,404.2234 c -0.72785,0 -1.30105,0.66181 -1.30105,1.49973 0,0.8382 0.5732,1.52174 1.30105,1.52174 0.70583,0 1.27903,-0.68354 1.27903,-1.52174 0,-0.83792 -0.5732,-1.49973 -1.27903,-1.49973" style="fill:none;stroke:#00b050;stroke-width:0.35285848px;stroke-linecap:butt;stroke-linejoin:round;stroke-miterlimit:10;stroke-dasharray:none;stroke-opacity:1"/>
    <path inkscape:connector-curvature="0" id="path4648" d="m 245.54717,404.42209 c -0.70555,0 -1.27903,0.68354 -1.27903,1.52174 0,0.83792 0.57348,1.49945 1.27903,1.49945 0.70584,0 1.30133,-0.66153 1.30133,-1.49945 0,-0.8382 -0.59549,-1.52174 -1.30133,-1.52174" style="fill:none;stroke:#00b050;stroke-width:0.35285848px;stroke-linecap:butt;stroke-linejoin:round;stroke-miterlimit:10;stroke-dasharray:none;stroke-opacity:1"/>
    <path inkscape:connector-curvature="0" id="path4650" d="m 240.82785,404.42209 c -0.70583,0 -1.27903,0.68354 -1.27903,1.52174 0,0.83792 0.5732,1.49945 1.27903,1.49945 0.72786,0 1.30105,-0.66153 1.30105,-1.49945 0,-0.8382 -0.57319,-1.52174 -1.30105,-1.52174" style="fill:none;stroke:#00b050;stroke-width:0.35285848px;stroke-linecap:butt;stroke-linejoin:round;stroke-miterlimit:10;stroke-dasharray:none;stroke-opacity:1"/>
    <path inkscape:connector-curvature="0" id="path4652" d="m 235.42471,404.62049 c -0.70584,0 -1.30133,0.68354 -1.30133,1.52174 0,0.83792 0.59549,1.52174 1.30133,1.52174 0.70556,0 1.30104,-0.68382 1.30104,-1.52174 0,-0.8382 -0.59548,-1.52174 -1.30104,-1.52174" style="fill:none;stroke:#00b050;stroke-width:0.35285848px;stroke-linecap:butt;stroke-linejoin:round;stroke-miterlimit:10;stroke-dasharray:none;stroke-opacity:1"/>
    <path inkscape:connector-curvature="0" id="path4654" d="m 250.26678,399.68047 c -0.72785,0 -1.30105,0.68354 -1.30105,1.52174 0,0.83792 0.5732,1.49973 1.30105,1.49973 0.70583,0 1.27903,-0.66181 1.27903,-1.49973 0,-0.8382 -0.5732,-1.52174 -1.27903,-1.52174" style="fill:none;stroke:#00b050;stroke-width:0.35285848px;stroke-linecap:butt;stroke-linejoin:round;stroke-miterlimit:10;stroke-dasharray:none;stroke-opacity:1"/>
    <path inkscape:connector-curvature="0" id="path4656" d="m 245.54717,399.87887 c -0.70555,0 -1.27903,0.68383 -1.27903,1.52175 0,0.8382 0.57348,1.52174 1.27903,1.52174 0.70584,0 1.30133,-0.68354 1.30133,-1.52174 0,-0.83792 -0.59549,-1.52175 -1.30133,-1.52175" style="fill:none;stroke:#00b050;stroke-width:0.35285848px;stroke-linecap:butt;stroke-linejoin:round;stroke-miterlimit:10;stroke-dasharray:none;stroke-opacity:1"/>
    <path inkscape:connector-curvature="0" id="path4658" d="m 240.82785,399.87887 c -0.70583,0 -1.27903,0.68383 -1.27903,1.52175 0,0.8382 0.5732,1.52174 1.27903,1.52174 0.72786,0 1.30105,-0.68354 1.30105,-1.52174 0,-0.83792 -0.57319,-1.52175 -1.30105,-1.52175" style="fill:none;stroke:#00b050;stroke-width:0.35285848px;stroke-linecap:butt;stroke-linejoin:round;stroke-miterlimit:10;stroke-dasharray:none;stroke-opacity:1"/>
    <path inkscape:connector-curvature="0" id="path4660" d="m 235.42471,400.07756 c -0.70584,0 -1.30133,0.68354 -1.30133,1.52146 0,0.8382 0.59549,1.52174 1.30133,1.52174 0.70556,0 1.30104,-0.68354 1.30104,-1.52174 0,-0.83792 -0.59548,-1.52146 -1.30104,-1.52146" style="fill:none;stroke:#00b050;stroke-width:0.35285848px;stroke-linecap:butt;stroke-linejoin:round;stroke-miterlimit:10;stroke-dasharray:none;stroke-opacity:1"/>
    <path inkscape:connector-curvature="0" id="path4662" d="m 250.06837,394.89483 c -0.72785,0 -1.30132,0.68354 -1.30132,1.52174 0,0.83792 0.57347,1.52174 1.30132,1.52174 0.70556,0 1.27904,-0.68382 1.27904,-1.52174 0,-0.8382 -0.57348,-1.52174 -1.27904,-1.52174" style="fill:none;stroke:#00b050;stroke-width:0.35285848px;stroke-linecap:butt;stroke-linejoin:round;stroke-miterlimit:10;stroke-dasharray:none;stroke-opacity:1"/>
    <path inkscape:connector-curvature="0" id="path4664" d="m 245.34877,395.09323 c -0.70555,0 -1.30104,0.68383 -1.30104,1.52174 0,0.8382 0.59549,1.52175 1.30104,1.52175 0.70584,0 1.27903,-0.68355 1.27903,-1.52175 0,-0.83791 -0.57319,-1.52174 -1.27903,-1.52174" style="fill:none;stroke:#00b050;stroke-width:0.35285848px;stroke-linecap:butt;stroke-linejoin:round;stroke-miterlimit:10;stroke-dasharray:none;stroke-opacity:1"/>
    <path inkscape:connector-curvature="0" id="path4666" d="m 240.62945,395.09323 c -0.70584,0 -1.27931,0.68383 -1.27931,1.52174 0,0.8382 0.57347,1.52175 1.27931,1.52175 0.70556,0 1.30105,-0.68355 1.30105,-1.52175 0,-0.83791 -0.59549,-1.52174 -1.30105,-1.52174" style="fill:none;stroke:#00b050;stroke-width:0.35285848px;stroke-linecap:butt;stroke-linejoin:round;stroke-miterlimit:10;stroke-dasharray:none;stroke-opacity:1"/>
    <path inkscape:connector-curvature="0" id="path4668" d="m 235.22631,395.31393 c -0.72785,0 -1.30133,0.66153 -1.30133,1.49945 0,0.8382 0.57348,1.52174 1.30133,1.52174 0.70555,0 1.27903,-0.68354 1.27903,-1.52174 0,-0.83792 -0.57348,-1.49945 -1.27903,-1.49945" style="fill:none;stroke:#00b050;stroke-width:0.35285848px;stroke-linecap:butt;stroke-linejoin:round;stroke-miterlimit:10;stroke-dasharray:none;stroke-opacity:1"/>
    <path inkscape:connector-curvature="0" id="path4670" d="m 250.06837,390.10919 c -0.72785,0 -1.30132,0.68354 -1.30132,1.52174 0,0.83792 0.57347,1.52174 1.30132,1.52174 0.70556,0 1.27904,-0.68382 1.27904,-1.52174 0,-0.8382 -0.57348,-1.52174 -1.27904,-1.52174" style="fill:none;stroke:#00b050;stroke-width:0.35285848px;stroke-linecap:butt;stroke-linejoin:round;stroke-miterlimit:10;stroke-dasharray:none;stroke-opacity:1"/>
    <path inkscape:connector-curvature="0" id="path4672" d="m 245.34877,390.3296 c -0.70555,0 -1.30104,0.66181 -1.30104,1.49973 0,0.8382 0.59549,1.52174 1.30104,1.52174 0.70584,0 1.27903,-0.68354 1.27903,-1.52174 0,-0.83792 -0.57319,-1.49973 -1.27903,-1.49973" style="fill:none;stroke:#00b050;stroke-width:0.35285848px;stroke-linecap:butt;stroke-linejoin:round;stroke-miterlimit:10;stroke-dasharray:none;stroke-opacity:1"/>
    <path inkscape:connector-curvature="0" id="path4674" d="m 240.62945,390.3296 c -0.70584,0 -1.27931,0.66181 -1.27931,1.49973 0,0.8382 0.57347,1.52174 1.27931,1.52174 0.70556,0 1.30105,-0.68354 1.30105,-1.52174 0,-0.83792 -0.59549,-1.49973 -1.30105,-1.49973" style="fill:none;stroke:#00b050;stroke-width:0.35285848px;stroke-linecap:butt;stroke-linejoin:round;stroke-miterlimit:10;stroke-dasharray:none;stroke-opacity:1"/>
    <path inkscape:connector-curvature="0" id="path4676" d="m 235.22631,390.52829 c -0.72785,0 -1.30133,0.68354 -1.30133,1.52174 0,0.83792 0.57348,1.49945 1.30133,1.49945 0.70555,0 1.27903,-0.66153 1.27903,-1.49945 0,-0.8382 -0.57348,-1.52174 -1.27903,-1.52174" style="fill:none;stroke:#00b050;stroke-width:0.35285848px;stroke-linecap:butt;stroke-linejoin:round;stroke-miterlimit:10;stroke-dasharray:none;stroke-opacity:1"/>
    <path inkscape:connector-curvature="0" id="path4678" d="m 263.5871,455.25567 -0.74986,-6.7485 -41.65911,0 -0.72785,6.7485 z" style="fill:#00b050;fill-opacity:1;fill-rule:evenodd;stroke:none"/>
    <path inkscape:connector-curvature="0" id="path4680" d="m 263.5871,455.25567 -0.74986,-6.7485 -41.65911,0 -0.72785,6.7485 z" style="fill:none;stroke:#000000;stroke-width:0.94830716px;stroke-linecap:butt;stroke-linejoin:miter;stroke-miterlimit:8;stroke-dasharray:none;stroke-opacity:1"/>
    <path inkscape:connector-curvature="0" id="path4682" d="m 161.32444,422.68243 1.1907,8.02753 71.45387,-10.51955 -1.1907,-8.02753 z" style="fill:#ffc000;fill-opacity:1;fill-rule:evenodd;stroke:none"/>
    <path inkscape:connector-curvature="0" id="path4684" d="m 161.32444,422.68243 1.1907,8.02753 71.45387,-10.51955 -1.1907,-8.02753 z" style="fill:none;stroke:#000000;stroke-width:0.70571697px;stroke-linecap:butt;stroke-linejoin:miter;stroke-miterlimit:8;stroke-dasharray:none;stroke-opacity:1"/>
    <path inkscape:connector-curvature="0" id="path4686" d="m 243.56259,414.47851 -10.14476,-2.29362 1.10264,7.43204 z" style="fill:#ffe699;fill-opacity:1;fill-rule:evenodd;stroke:none"/>
    <path inkscape:connector-curvature="0" id="path4688" d="m 243.56259,414.47851 -10.14476,-2.29362 1.10264,7.43204 z" style="fill:none;stroke:#000000;stroke-width:0.70571697px;stroke-linecap:butt;stroke-linejoin:miter;stroke-miterlimit:8;stroke-dasharray:none;stroke-opacity:1"/>
    <path inkscape:connector-curvature="0" id="path4690" d="m 152.50302,424.13785 c -0.79417,0.11035 -1.34535,0.86021 -1.235,1.6541 l 0.68354,4.65328 c 0.13236,0.7939 0.86021,1.34536 1.67612,1.23501 l 2.05091,-0.30875 c 0.79389,-0.13236 1.34535,-0.85993 1.235,-1.65382 l -0.68354,-4.65357 c -0.11035,-0.79389 -0.86021,-1.34507 -1.6541,-1.235 z" style="fill:#ff7c80;fill-opacity:1;fill-rule:evenodd;stroke:none"/>
    <path inkscape:connector-curvature="0" id="path4692" d="m 152.50302,424.13785 c -0.79417,0.11035 -1.34535,0.86021 -1.235,1.6541 l 0.68354,4.65328 c 0.13236,0.7939 0.86021,1.34536 1.67612,1.23501 l 2.05091,-0.30875 c 0.79389,-0.13236 1.34535,-0.85993 1.235,-1.65382 l -0.68354,-4.65357 c -0.11035,-0.79389 -0.86021,-1.34507 -1.6541,-1.235 z" style="fill:none;stroke:#000000;stroke-width:0.94830716px;stroke-linecap:butt;stroke-linejoin:round;stroke-miterlimit:10;stroke-dasharray:none;stroke-opacity:1"/>
    <path inkscape:connector-curvature="0" id="path4694" d="m 154.81866,423.6307 1.19069,8.04954 7.03524,-1.03632 -1.16897,-8.04983 z" style="fill:#c0c0c0;fill-opacity:1;fill-rule:evenodd;stroke:none"/>
    <path inkscape:connector-curvature="0" id="path4696" d="m 154.81866,423.6307 1.19069,8.04954 7.03524,-1.03632 -1.16897,-8.04983 z" style="fill:none;stroke:#000000;stroke-width:0.70571697px;stroke-linecap:butt;stroke-linejoin:miter;stroke-miterlimit:8;stroke-dasharray:none;stroke-opacity:1"/>
    <path inkscape:connector-curvature="0" id="path4698" d="m 239.7032,413.94906 c 0.044,1.19098 0.088,2.38196 0.55118,2.448 0.46313,0.0663 2.22758,-1.63181 2.22758,-2.05091 0.022,-0.44111 -1.08063,-0.46313 -2.16126,-0.48514 z" style="fill:#000000;fill-opacity:1;fill-rule:evenodd;stroke:none"/>
  </g>
</svg>